<?xml version="1.0" standalone="no"?>

<svg version="1.0" xmlns="http://www.w3.org/2000/svg"
 width="120" height="120" viewBox="0 0 1536.000000 1536.000000"
 preserveAspectRatio="xMidYMid meet">

<g transform="translate(0.000000,1536.000000) scale(0.100000,-0.100000)"
fill="rgb(8, 89, 252)" stroke="none">
<path d="M7245 11180 c-30 -4 -35 -7 -22 -12 10 -5 15 -13 11 -19 -3 -6 -6
-343 -6 -748 1 -405 -1 -744 -4 -753 -8 -27 -22 -21 -26 10 -3 15 -4 0 -5 -33
0 -41 2 -54 8 -40 5 12 7 -30 5 -97 -3 -66 0 -120 5 -124 5 -3 9 -15 9 -27 0
-18 -2 -19 -10 -7 -7 10 -8 -10 -4 -65 11 -143 14 -545 5 -545 -6 0 -11 15
-14 33 -2 17 -3 -377 -3 -877 l1 -908 -20 27 c-11 16 -47 64 -81 109 -33 45
-91 128 -130 185 l-69 104 -3 1875 c-2 1724 -4 1877 -19 1894 -13 15 -32 18
-104 18 -81 0 -90 -2 -103 -22 -13 -20 -15 -161 -12 -1055 1 -568 1 -1033 0
-1033 -3 0 -265 336 -283 363 -8 12 -25 33 -37 47 -12 14 -32 45 -45 70 l-24
45 -1 415 c-1 228 2 435 7 459 5 23 20 57 33 75 14 17 41 65 62 106 34 68 37
82 38 160 1 109 -21 173 -80 238 -56 63 -102 85 -173 84 -147 -2 -251 -117
-268 -297 -8 -82 14 -151 77 -248 33 -51 54 -96 61 -130 6 -31 9 -232 8 -487
-2 -426 -2 -436 20 -489 26 -64 60 -116 161 -241 70 -88 348 -444 415 -533
l29 -39 -3 -450 c-1 -248 -6 -460 -10 -471 -7 -17 -25 4 -119 136 -62 86 -145
202 -184 257 -40 55 -110 153 -156 217 -144 203 -203 286 -333 465 -69 95
-215 299 -324 453 -109 154 -231 325 -270 380 -39 55 -77 110 -85 121 -52 75
-195 278 -320 454 -80 113 -175 247 -210 298 -36 51 -99 139 -140 195 -41 56
-88 123 -105 147 -74 112 -166 230 -199 255 -64 49 -106 55 -386 55 -189 0
-261 -3 -273 -12 -16 -12 -17 -232 -15 -3556 3 -3136 5 -3544 18 -3552 20 -13
470 -13 470 -1 0 6 -5 13 -10 16 -8 5 -8 11 -1 19 6 7 7 16 3 20 -4 4 5 5 19
1 18 -5 28 -2 32 8 4 11 0 13 -14 10 -22 -6 -26 12 -4 21 10 4 15 19 14 48
l-1 43 -9 -39 c-16 -68 -22 -55 -14 31 5 57 4 83 -4 83 -6 0 -11 -33 -13 -83
-2 -45 -4 797 -5 1871 -1 1074 2 1975 6 2002 5 29 4 56 -2 66 -7 13 -7 19 1
22 15 5 16 32 2 32 -12 0 -13 98 -3 191 5 51 8 59 15 39 5 -18 6 -13 3 15 -15
122 -17 185 -14 440 1 154 3 309 5 345 7 140 9 403 3 370 -3 -19 -7 123 -7
315 0 203 3 342 8 330 8 -19 9 -19 9 3 1 12 10 30 21 39 11 10 20 22 20 28 0
6 15 11 33 12 18 0 23 -1 10 -4 -14 -3 -20 -9 -16 -19 3 -7 9 -12 14 -9 4 3
13 -3 18 -13 6 -11 23 -25 39 -31 19 -8 33 -23 39 -44 5 -18 15 -31 21 -30 6
2 35 -30 64 -70 84 -114 103 -147 76 -131 -9 5 -8 2 1 -9 8 -10 16 -15 19 -12
3 3 12 -5 20 -17 12 -16 13 -23 3 -26 -9 -3 -9 -7 0 -18 9 -11 14 -12 20 -3 4
8 11 4 20 -12 11 -21 10 -22 -3 -12 -11 10 -17 10 -26 1 -19 -19 -14 -30 9
-23 18 6 21 4 17 -13 -4 -14 -2 -19 7 -16 6 3 18 -2 25 -11 7 -8 20 -15 30
-15 10 0 21 -7 24 -16 5 -13 3 -14 -6 -7 -15 12 -49 13 -42 2 2 -5 11 -6 19
-2 14 5 21 -13 16 -40 -1 -7 43 -29 64 -32 6 0 9 -6 7 -13 -1 -7 2 -11 7 -10
14 5 103 -120 95 -133 -4 -7 -3 -9 3 -6 15 9 119 -134 107 -146 -4 -4 -3 -12
3 -19 5 -7 15 -32 23 -56 7 -23 15 -40 18 -38 2 3 16 -6 30 -19 14 -13 29 -22
34 -19 4 3 5 -2 2 -10 -3 -9 -10 -14 -14 -11 -5 3 -11 1 -14 -4 -8 -12 26 -23
46 -16 16 7 36 -14 107 -113 28 -40 49 -78 45 -84 -4 -6 -3 -8 3 -5 12 8 113
-133 113 -157 0 -9 6 -15 12 -14 7 2 13 -4 13 -12 0 -8 -6 -14 -13 -12 -8 1
-11 -2 -7 -8 4 -6 10 -9 13 -5 11 11 30 -49 20 -62 -7 -9 -3 -15 16 -23 14 -5
26 -16 26 -24 0 -7 10 -16 22 -19 18 -5 19 -8 8 -21 -16 -21 3 -21 23 -1 14
13 18 10 38 -23 13 -20 22 -40 21 -44 -1 -5 2 -8 7 -8 14 0 151 -201 151 -221
0 -10 -5 -21 -10 -24 -14 -9 7 -35 26 -35 17 0 18 -27 2 -33 -8 -2 -9 -8 -4
-13 5 -5 11 -4 13 4 7 18 16 15 32 -9 11 -19 11 -21 -4 -16 -9 4 -13 3 -10 -2
9 -15 46 -9 40 7 -3 7 0 10 6 7 5 -4 7 -15 4 -26 -5 -13 -2 -19 10 -19 12 0
15 -6 10 -20 -4 -11 -2 -20 4 -20 6 0 11 -6 11 -13 0 -8 7 -14 15 -14 13 0 13
3 0 24 -9 13 -13 23 -11 23 8 0 131 -175 128 -182 -1 -5 4 -8 11 -8 7 0 20
-13 30 -29 20 -34 22 -45 5 -35 -7 4 -8 3 -4 -5 4 -6 11 -9 16 -6 14 9 43 -43
37 -66 -4 -16 -2 -19 10 -15 11 5 14 2 9 -10 -7 -19 10 -54 28 -54 7 0 16 -13
20 -30 5 -28 26 -43 26 -19 0 8 4 8 14 -1 8 -6 13 -17 10 -24 -3 -7 3 -19 12
-27 12 -9 15 -10 10 -1 -18 30 11 8 34 -25 14 -20 53 -74 88 -120 34 -46 62
-86 62 -88 0 -14 -49 32 -50 45 0 13 -2 13 -9 1 -9 -15 -4 -42 7 -39 4 1 18
-4 32 -12 14 -7 27 -13 30 -14 3 0 23 -24 44 -55 22 -30 35 -51 28 -48 -18 12
-25 -14 -8 -31 15 -15 16 -15 16 1 0 10 4 16 9 13 15 -10 90 -123 85 -130 -2
-3 -1 -4 2 -1 4 2 22 -16 41 -41 28 -36 32 -48 23 -59 -7 -8 -16 -13 -20 -10
-4 3 -10 -1 -13 -8 -4 -10 3 -12 24 -9 16 2 29 9 29 15 0 6 6 2 14 -8 12 -16
12 -22 0 -40 -8 -12 -10 -26 -5 -33 7 -11 9 -10 14 2 11 28 34 17 71 -33 37
-50 45 -68 24 -55 -7 4 -8 3 -4 -5 4 -6 11 -9 16 -6 5 3 40 -38 79 -92 59 -80
68 -99 56 -106 -9 -4 -13 -13 -9 -18 4 -6 10 -6 19 1 9 7 16 6 25 -5 8 -9 9
-15 4 -14 -21 4 -25 -2 -10 -16 8 -9 13 -22 9 -30 -3 -11 -1 -13 10 -10 14 6
33 -22 22 -33 -3 -3 -5 0 -5 6 0 7 -5 12 -11 12 -8 0 -8 -4 1 -15 8 -10 17
-12 29 -5 13 7 23 1 45 -26 l28 -36 -21 -14 c-12 -8 -21 -23 -20 -32 0 -13 2
-12 9 4 11 28 35 37 51 18 9 -11 8 -19 -7 -37 l-19 -22 22 18 c21 18 41 9 28
-12 -3 -5 0 -13 6 -17 8 -5 9 -3 4 7 -23 41 31 -30 179 -231 6 -8 0 -6 -13 5
l-24 20 18 -27 c9 -15 21 -26 25 -23 12 7 126 -153 122 -171 -2 -8 2 -13 8
-12 7 2 19 -7 27 -20 9 -13 12 -22 7 -21 -19 3 -34 -1 -34 -11 0 -6 10 -8 24
-4 29 7 60 -29 46 -55 -9 -18 4 -51 21 -51 5 0 23 -15 40 -32 l31 -33 -22 35
-22 35 27 -30 c51 -58 206 -286 200 -295 -3 -5 0 -12 6 -16 8 -5 9 -3 4 7 -6
11 -5 11 5 2 18 -17 3 -35 -20 -23 -24 13 -30 13 -30 0 0 -5 3 -9 8 -9 20 3
30 -3 35 -20 2 -10 14 -24 25 -30 18 -10 20 -9 17 9 -2 12 0 18 6 15 5 -4 7
-11 4 -16 -4 -5 0 -9 7 -9 10 -1 9 -4 -2 -13 -16 -13 -26 -42 -12 -33 5 3 19
-4 30 -15 12 -11 22 -15 22 -9 0 5 5 10 11 10 6 0 8 -7 5 -16 -3 -8 -2 -13 3
-10 5 3 14 0 20 -8 9 -10 8 -15 -4 -20 -17 -6 -21 -26 -4 -26 5 0 7 5 4 10 -3
6 0 10 8 10 17 0 104 -126 120 -175 7 -18 6 -19 -6 -3 -8 10 -17 15 -20 12 -7
-8 17 -34 31 -34 6 0 13 -17 16 -37 8 -51 2 -310 -7 -319 -4 -4 -7 68 -7 159
0 92 -3 167 -8 167 -8 0 -6 -292 3 -328 3 -13 10 -20 15 -17 14 9 12 -35 -3
-65 -9 -17 -24 -27 -50 -31 -43 -7 -53 -1 -29 17 16 12 16 13 -3 13 -11 0 -29
-6 -39 -14 -11 -8 -28 -15 -37 -15 -26 0 -100 52 -95 66 3 7 0 11 -7 8 -13 -5
-93 74 -123 121 -10 17 -34 50 -52 75 l-34 44 22 18 22 18 -26 0 c-17 0 -26 5
-26 16 0 10 -6 14 -15 10 -8 -3 -15 -1 -15 3 0 5 6 12 13 14 10 4 10 6 0 6 -7
1 -13 7 -13 15 0 8 -9 24 -19 37 -15 19 -22 21 -32 12 -9 -9 -17 -5 -35 20
-13 18 -30 44 -37 60 -7 15 -17 24 -22 20 -4 -5 -5 0 -2 10 4 10 3 16 -2 13
-11 -7 -73 83 -65 96 3 4 1 7 -4 6 -11 -3 -66 71 -59 79 3 2 15 -12 27 -32 12
-20 24 -34 26 -32 5 5 -27 69 -43 85 -7 7 -13 18 -13 23 0 6 -4 8 -10 4 -5 -3
-7 -13 -3 -23 3 -9 -6 -3 -20 13 -31 36 -41 66 -21 58 10 -4 12 0 8 12 -4 10
-1 21 7 26 10 6 11 9 1 9 -7 0 -15 -7 -18 -15 -6 -14 -8 -13 -20 2 -9 12 -13
14 -14 5 0 -30 -30 18 -31 50 -1 28 -2 29 -8 10 -5 -20 -17 -7 -96 105 -128
180 -130 184 -114 194 11 7 12 10 1 21 -8 7 -12 9 -10 3 2 -5 -1 -10 -7 -10
-5 0 -9 4 -7 8 1 5 -1 6 -6 3 -5 -3 -23 16 -41 42 -17 26 -53 78 -80 117 -27
38 -47 73 -45 77 3 5 1 8 -5 8 -16 0 -61 72 -52 84 10 14 -13 59 -24 48 -4 -4
-6 0 -3 9 7 18 -27 43 -45 32 -9 -5 -8 -3 1 9 10 13 7 20 -20 47 -17 17 -34
28 -37 25 -3 -3 -1 -8 4 -12 22 -15 49 -53 34 -47 -13 5 -189 241 -197 264 -2
5 4 16 13 25 15 15 15 16 -4 16 -17 0 -21 6 -21 33 0 24 -3 28 -10 17 -5 -8
-10 -10 -10 -5 0 6 -4 4 -9 -4 -6 -9 -11 -10 -15 -2 -4 6 -2 11 3 11 19 0 12
26 -16 56 -15 16 -26 32 -25 37 1 4 -3 7 -8 7 -6 0 -10 -4 -10 -10 0 -20 -15
-9 -38 26 -12 19 -20 39 -17 44 4 6 -1 10 -9 10 -9 0 -26 15 -38 34 -13 19
-53 77 -90 129 -45 64 -66 102 -63 116 2 11 -1 21 -7 21 -5 0 -7 -7 -4 -16 12
-31 -13 -2 -73 85 -33 49 -61 94 -61 99 0 6 -6 13 -12 15 -8 3 -6 6 5 6 9 1
17 5 17 10 0 5 -9 7 -19 4 -13 -3 -23 2 -31 17 -6 12 -9 24 -6 27 3 3 8 -2 12
-11 3 -9 10 -16 15 -16 14 0 -3 32 -34 64 -19 21 -27 38 -24 53 4 24 -7 32
-17 11 -5 -10 -7 -10 -12 0 -3 6 -10 12 -15 12 -6 0 -7 -6 -3 -12 6 -9 3 -9
-9 1 -9 7 -27 30 -39 50 -12 20 -28 42 -36 50 -7 7 -11 20 -8 28 3 8 2 11 -4
8 -13 -8 -93 103 -84 117 4 7 3 8 -4 4 -7 -4 -32 24 -62 69 -28 41 -47 75 -42
75 5 0 14 -12 21 -27 9 -19 15 -23 23 -15 8 8 9 18 1 35 -9 19 -17 23 -36 20
-14 -3 -28 0 -31 6 -5 7 2 11 18 11 14 0 26 5 26 11 0 6 -7 9 -15 5 -8 -3 -15
0 -15 6 0 6 -8 18 -18 27 -18 16 -32 42 -38 69 -6 31 -13 22 -10 -12 5 -43 -2
-45 -29 -6 -11 17 -49 68 -83 115 -36 49 -61 92 -58 100 3 8 1 17 -4 20 -6 4
-10 0 -10 -7 0 -7 -6 -4 -12 7 -7 11 -18 26 -25 33 -7 7 -13 20 -13 28 0 8 -5
14 -12 14 -8 0 -7 6 4 16 14 15 14 19 -6 50 -13 20 -29 33 -42 34 -17 0 -20 5
-16 25 5 29 0 31 -24 8 -13 -13 -16 -14 -12 -3 2 8 -6 23 -19 34 -13 10 -22
25 -19 32 3 8 0 13 -7 11 -7 -1 -11 4 -10 11 2 6 -3 12 -10 12 -20 1 -121 161
-107 170 13 8 4 50 -11 50 -5 0 -19 10 -31 22 l-21 21 21 -5 c12 -4 20 -2 16
3 -3 5 -14 9 -25 9 -10 0 -19 5 -19 11 0 5 -4 8 -9 4 -5 -3 -13 -1 -16 5 -4 6
-3 9 2 8 22 -8 14 12 -19 52 -21 24 -38 39 -38 34 0 -6 5 -15 12 -22 6 -6 9
-14 6 -18 -7 -6 -58 64 -58 79 0 5 8 7 18 3 11 -4 9 0 -5 10 -13 9 -23 25 -23
35 0 11 -4 19 -10 19 -14 0 -12 -12 6 -40 l16 -25 -21 25 c-12 14 -25 30 -31
37 -5 7 -10 16 -10 20 0 5 -9 16 -21 26 -13 12 -18 25 -15 40 3 12 3 16 0 9
-5 -10 -10 -9 -25 4 -22 20 -21 22 -22 -71 0 -61 -1 -63 -4 -17 -3 45 -6 52
-18 42 -8 -7 -13 -16 -10 -20 2 -4 7 -22 9 -41 3 -19 10 -49 15 -68 8 -27 14
-958 8 -1266 0 -16 1 -201 2 -410 3 -608 -2 -3173 -6 -3142 l-4 28 -19 -23
c-20 -26 -11 -58 16 -58 13 0 15 -8 12 -35 l-4 -35 222 0 c190 0 225 2 238 16
15 14 16 182 14 1785 -2 973 -1 1769 2 1769 3 0 25 -27 50 -59 25 -33 91 -116
148 -185 l103 -126 2 -1574 2 -1574 24 -26 c31 -32 83 -50 126 -42 38 8 85 56
86 89 0 12 0 308 -1 657 -1 350 2 643 6 653 3 9 10 17 14 17 7 0 144 -178 192
-250 9 -14 80 -108 157 -209 78 -102 141 -192 141 -201 0 -9 -37 -70 -82 -136
-101 -147 -279 -414 -295 -442 -22 -38 -16 -86 15 -114 38 -36 65 -48 108 -48
31 0 44 7 78 43 23 23 67 81 99 127 59 86 127 186 250 364 95 136 107 160 107
210 0 48 -34 99 -200 306 -109 135 -514 679 -560 753 l-40 62 0 443 c0 287 4
450 10 463 15 26 32 24 62 -8 24 -27 222 -303 463 -648 119 -170 225 -321 336
-480 39 -55 168 -242 286 -415 236 -343 440 -640 573 -831 123 -177 151 -217
200 -288 77 -112 -192 -101 2290 -100 1916 0 2167 1 2185 15 20 15 20 26 19
840 l-2 826 -21 22 -22 21 -1034 5 c-963 5 -1035 6 -1052 22 -16 16 -16 20 -1
52 9 19 67 115 129 213 61 98 161 259 222 358 60 99 133 216 161 260 28 43 56
87 61 97 6 9 66 108 134 220 68 112 160 264 205 338 172 284 287 471 391 635
59 94 204 325 322 515 118 190 225 361 238 380 41 62 203 337 237 402 l33 63
3 918 c2 735 0 918 -10 922 -18 7 -4533 11 -4583 5z m819 -542 c14 -20 16 -93
16 -593 0 -313 4 -584 9 -601 16 -56 137 -215 798 -1044 182 -228 338 -429
347 -447 28 -55 21 -97 -36 -202 -59 -111 -502 -821 -694 -1114 -289 -442
-413 -636 -537 -842 -46 -77 -88 -140 -92 -140 -4 0 -15 18 -24 40 -15 36 -16
267 -16 2488 0 2412 0 2449 19 2463 14 10 48 14 107 14 79 0 89 -2 103 -22z
m587 3 c-8 -5 14 -11 63 -16 75 -7 102 -2 91 16 -4 6 437 8 1172 7 648 -1
1151 -5 1118 -8 -57 -6 -55 -7 33 -8 56 -1 92 2 92 8 0 6 14 10 30 10 17 0 30
-5 30 -10 0 -6 13 -8 30 -5 29 5 30 4 24 -20 -5 -19 -3 -25 7 -23 11 2 13 -40
11 -227 -1 -126 -3 -243 -4 -260 -1 -16 1 -104 4 -195 4 -92 3 -156 -2 -145
-7 16 -9 12 -9 -18 -1 -23 3 -36 9 -32 6 4 10 -12 9 -42 0 -34 -3 -42 -8 -28
-7 17 -10 14 -19 -19 -7 -23 -8 -45 -2 -55 4 -9 7 -44 6 -76 -2 -53 -8 -71
-60 -157 -39 -64 -63 -95 -72 -91 -8 3 -14 0 -14 -6 0 -6 -7 -11 -15 -11 -8 0
-15 -2 -15 -4 0 -2 -3 -13 -7 -23 -6 -15 -5 -16 9 -5 13 10 18 10 24 1 4 -7 3
-10 -2 -7 -5 3 -18 -6 -28 -20 -11 -14 -14 -22 -8 -18 18 11 14 -6 -8 -34 -17
-21 -19 -22 -14 -5 5 17 3 17 -16 -4 -16 -19 -18 -26 -8 -33 10 -7 9 -11 -4
-22 -10 -7 -18 -16 -18 -20 0 -11 -27 -36 -34 -31 -3 3 -2 0 3 -6 6 -7 -7 -37
-37 -86 -26 -41 -62 -100 -81 -131 -19 -31 -36 -51 -39 -44 -2 7 3 21 12 31 9
10 13 21 10 24 -10 10 -35 -44 -29 -62 2 -9 -5 -27 -15 -41 -11 -14 -18 -18
-14 -9 3 10 1 20 -5 24 -14 8 -31 -36 -26 -64 2 -12 -1 -20 -8 -18 -6 1 -12
-9 -12 -23 -1 -14 -14 -45 -31 -70 -16 -25 -31 -49 -34 -55 -25 -49 -64 -104
-71 -99 -5 3 -6 -2 -3 -10 3 -9 1 -16 -4 -16 -6 0 -14 -9 -17 -20 -4 -11 -11
-17 -17 -14 -7 4 -8 2 -4 -5 4 -6 -10 -38 -33 -72 -23 -34 -41 -56 -41 -49 0
7 -7 10 -16 6 -12 -4 -15 -2 -10 9 8 22 -2 18 -14 -5 -12 -23 -4 -64 11 -55 5
3 6 -1 3 -9 -3 -9 -12 -16 -19 -16 -15 0 -28 -27 -20 -41 4 -5 -8 -17 -26 -28
-22 -13 -27 -20 -15 -23 12 -2 -2 -32 -60 -128 -41 -69 -84 -130 -96 -135 -12
-6 -24 -17 -26 -25 -3 -9 2 -8 12 5 16 19 16 18 0 -14 -10 -22 -19 -30 -23
-22 -9 14 -37 5 -45 -14 -2 -7 4 -15 16 -19 18 -4 19 -7 8 -20 -7 -9 -18 -16
-24 -16 -7 0 -21 -6 -31 -14 -15 -11 -17 -17 -7 -28 9 -12 8 -23 -9 -57 -12
-25 -24 -39 -31 -35 -6 4 -8 3 -5 -3 9 -14 -2 -33 -97 -183 -13 -19 -30 -47
-40 -63 -14 -22 -19 -25 -30 -15 -8 7 -11 17 -8 22 3 5 0 6 -6 2 -6 -4 -8 -14
-5 -23 5 -12 3 -14 -7 -8 -10 6 -12 4 -7 -8 4 -10 -2 -24 -14 -36 -12 -11 -18
-25 -14 -31 5 -8 11 -6 21 7 7 10 14 15 14 11 0 -9 -52 -96 -97 -160 -18 -26
-33 -53 -33 -59 0 -7 -15 -35 -34 -63 -18 -28 -52 -80 -75 -116 -22 -36 -41
-60 -41 -53 0 6 4 14 9 18 12 7 10 45 -2 45 -4 0 -7 -8 -5 -17 2 -10 -2 -17
-9 -16 -7 2 -9 -6 -4 -25 9 -30 -14 -76 -32 -65 -6 3 -7 1 -3 -5 4 -7 2 -12
-4 -12 -6 0 -9 -4 -5 -9 3 -5 -4 -26 -16 -46 -18 -31 -24 -34 -38 -23 -14 11
-14 11 -3 -3 11 -14 5 -28 -35 -93 -30 -47 -55 -76 -65 -76 -10 0 -18 -5 -18
-11 0 -8 -6 -7 -17 2 -15 11 -15 10 1 -8 10 -13 24 -19 30 -16 6 4 3 -4 -7
-17 -10 -14 -30 -45 -45 -69 -15 -24 -33 -49 -39 -56 -7 -8 -13 -18 -13 -24 0
-7 -10 -9 -26 -5 -19 5 -25 4 -20 -5 4 -6 14 -11 22 -11 8 0 13 -4 9 -10 -3
-5 -11 -8 -18 -6 -7 1 -9 1 -4 -1 11 -7 9 -20 -7 -35 -7 -8 -24 -34 -36 -57
-12 -24 -24 -40 -27 -37 -3 3 -1 11 5 19 8 10 6 13 -11 14 -12 1 -17 -1 -12
-5 27 -19 3 -83 -32 -88 -17 -3 -17 -2 1 11 18 13 18 14 -2 12 -11 0 -20 -4
-19 -7 1 -3 -2 -20 -6 -38 -4 -22 -11 -31 -18 -26 -7 4 -9 3 -5 -4 3 -6 -3
-13 -14 -17 -11 -3 -20 -11 -20 -17 0 -6 7 -5 17 3 15 12 16 12 10 -6 -6 -19
-6 -19 6 -1 7 10 20 28 30 40 l18 21 -12 -25 c-17 -36 -45 -70 -52 -64 -3 3
-14 1 -24 -5 -14 -8 -15 -11 -3 -12 8 -1 18 -1 22 0 4 0 0 -18 -9 -42 -16 -45
-23 -127 -10 -127 5 0 6 -4 2 -9 -9 -15 17 -62 31 -57 7 3 35 -23 63 -57 53
-65 61 -80 36 -71 -21 9 -19 -8 6 -35 13 -14 27 -20 40 -16 10 4 19 2 19 -4 0
-5 19 -31 43 -57 60 -68 69 -77 97 -96 24 -16 24 -16 2 -11 -18 4 -21 2 -16
-12 4 -10 14 -15 26 -12 11 3 21 0 24 -8 4 -9 29 -13 87 -12 82 0 82 0 22 7
-33 4 339 7 827 8 752 1 887 -1 891 -12 4 -9 14 -12 27 -9 20 5 21 3 15 -31
-5 -25 -4 -36 4 -36 7 0 9 5 6 10 -3 6 -1 10 4 10 15 0 14 -30 -1 -31 -10 0
-10 -2 0 -6 14 -6 16 -43 2 -43 -5 0 -10 -9 -10 -20 0 -11 5 -20 10 -20 6 0
10 -47 10 -120 0 -73 -4 -120 -10 -120 -5 0 -10 5 -10 10 0 6 -5 10 -10 10 -7
0 -7 -6 0 -19 5 -11 11 -32 11 -48 2 -26 2 -25 9 7 l7 35 2 -42 c1 -36 -2 -42
-16 -37 -17 5 -17 5 0 -9 35 -29 9 -78 -37 -70 -21 4 -27 2 -22 -6 4 -6 12 -9
17 -6 5 4 9 1 9 -5 0 -7 -13 -10 -32 -8 -18 2 -32 8 -31 14 2 13 -60 17 -101
7 -29 -7 -27 -8 24 -14 30 -3 -538 -6 -1263 -7 -962 -1 -1316 1 -1311 10 4 6
1 9 -7 6 -8 -3 -22 -1 -31 4 -12 5 -18 5 -18 -1 0 -6 -7 -8 -15 -5 -8 4 -22 1
-30 -6 -12 -10 -18 -10 -30 0 -10 9 -15 9 -15 1 0 -18 -19 -13 -45 14 -20 19
-25 34 -24 67 l2 43 6 -47 c4 -27 13 -54 20 -60 11 -11 12 -9 3 7 -5 11 -9 51
-9 89 1 45 4 62 9 50 5 -12 6 -9 2 11 -4 17 -6 120 -5 229 1 110 -1 197 -4
194 -3 -3 -8 -86 -11 -184 -2 -98 -7 -180 -9 -183 -3 -2 -5 132 -5 298 0 251
3 311 16 352 9 27 19 49 21 49 3 0 2 -8 -2 -17 -4 -13 -1 -12 15 5 11 12 25
22 30 22 6 0 10 5 10 11 0 5 -4 8 -9 5 -5 -3 -11 4 -14 16 -6 23 56 136 80
145 7 3 10 10 6 17 -4 7 -2 7 7 -1 10 -10 19 -3 42 33 17 24 34 41 39 38 5 -3
9 2 9 11 0 13 -4 14 -21 5 -30 -17 -35 -4 -6 15 15 10 25 25 25 41 0 13 6 32
15 42 8 9 40 58 71 107 30 50 65 101 77 115 l21 25 -16 -28 c-13 -21 -14 -32
-6 -47 14 -25 23 -26 15 -1 -9 29 15 73 37 68 15 -4 16 -2 7 14 -7 15 -6 21 6
25 8 3 15 12 15 20 0 8 6 11 15 8 10 -4 15 0 15 15 0 12 5 21 10 21 6 0 10 12
10 28 0 21 2 24 10 12 8 -12 9 -10 7 7 -4 32 -14 38 -22 14 -3 -12 -11 -21
-16 -21 -5 0 -9 -8 -10 -17 0 -11 -2 -13 -6 -5 -3 7 6 27 20 45 13 18 32 48
42 67 37 73 107 170 117 163 7 -3 8 -1 4 6 -10 16 18 58 44 66 12 4 19 9 16
12 -2 3 7 15 22 28 22 19 24 25 14 38 -9 11 -10 17 -2 22 6 4 9 1 8 -6 -2 -6
8 -13 21 -14 21 -2 22 0 8 10 -12 9 -14 14 -5 23 9 9 9 12 0 12 -17 0 -15 11
9 40 11 14 17 19 13 11 -5 -9 -3 -12 5 -7 6 4 9 11 6 16 -3 5 -1 19 6 31 9 17
13 19 20 8 7 -11 9 -9 9 8 0 39 115 227 132 217 7 -5 8 -3 4 5 -5 7 3 28 17
49 14 20 37 56 51 79 14 24 30 42 34 42 18 -3 26 2 15 9 -18 12 79 165 106
167 12 1 27 8 34 15 9 10 9 11 0 6 -7 -4 -13 -2 -13 5 0 8 -5 7 -17 -2 -16
-13 -17 -12 -5 3 8 9 20 14 28 11 8 -3 14 0 14 7 0 6 4 9 9 6 5 -3 9 6 9 19 0
22 -3 23 -16 13 -12 -10 -11 -6 3 22 31 60 67 110 76 105 4 -3 10 -1 13 4 4 5
2 12 -3 16 -6 3 2 24 19 48 15 23 53 81 84 130 58 89 73 106 56 61 -13 -34
-13 -39 5 -24 8 7 15 19 15 27 0 10 7 14 19 10 17 -4 18 -2 11 19 -6 15 -6 24
0 24 6 0 10 8 11 18 0 14 2 14 9 -3 7 -16 9 -17 9 -3 1 9 -6 21 -15 26 -14 8
-14 12 -3 29 7 12 19 19 26 16 7 -3 13 -1 13 5 0 6 -5 12 -11 14 -6 2 -2 14
11 28 12 14 19 20 16 14 -3 -7 1 -17 8 -24 12 -9 17 -5 25 27 15 52 14 58 -6
42 -15 -13 -15 -12 -4 9 7 12 17 20 23 16 7 -4 8 -3 4 4 -4 6 -2 21 5 33 9 18
13 19 21 8 7 -10 8 -9 4 6 -6 23 95 192 113 188 6 -2 8 4 4 14 -4 11 -3 14 5
9 8 -5 10 -2 6 9 -5 11 -2 16 7 15 8 -1 21 -2 29 -1 13 1 13 2 0 11 -11 7 -12
10 -2 10 9 0 11 7 7 20 -3 11 -3 20 2 20 13 0 39 -20 27 -20 -6 0 -11 -6 -11
-13 0 -8 6 -14 12 -14 8 0 10 13 8 34 -3 25 0 33 8 27 8 -4 9 -3 5 4 -4 7 4
28 18 48 24 36 26 62 4 48 -5 -4 -4 4 4 17 38 61 152 245 155 249 2 2 8 -2 12
-9 6 -9 11 -10 15 -2 4 6 11 9 16 6 4 -3 6 4 3 15 -3 11 0 20 6 20 6 0 11 7
11 16 0 14 -3 14 -15 4 -13 -11 -14 -10 -9 4 4 10 13 15 21 12 8 -3 17 2 20
12 4 9 15 26 25 37 10 10 16 25 14 32 -3 7 2 13 12 13 15 1 15 3 -3 17 -18 14
-18 15 -1 9 15 -5 17 -2 13 14 -4 14 8 36 39 72 24 29 44 56 44 60 0 5 5 6 11
2 6 -3 9 -15 6 -25 -3 -11 -1 -19 4 -19 5 0 9 19 9 43 0 30 -3 38 -10 27 -10
-17 -12 -16 -27 27 -8 23 -8 35 1 44 9 11 8 11 -6 0 -14 -10 -18 -9 -27 8 -6
11 -35 44 -64 73 -59 59 -88 102 -63 92 11 -4 13 0 9 16 -4 14 -8 18 -13 10
-6 -9 -9 -9 -15 0 -4 7 -1 16 6 22 12 7 11 8 -1 7 -31 -4 -70 22 -110 75 -23
30 -39 60 -35 65 3 7 0 8 -9 5 -10 -4 -17 2 -21 18 -3 13 -18 33 -32 44 -14
10 -52 53 -83 94 -32 41 -72 88 -89 104 -16 16 -28 33 -24 39 3 5 0 7 -8 5 -8
-3 -26 3 -41 14 -14 10 -55 25 -90 32 -47 10 -55 14 -30 15 17 1 32 6 32 11 0
16 -70 12 -87 -5 -13 -13 -95 -15 -654 -13 -632 3 -639 3 -659 24 -20 20 -21
31 -21 270 -1 244 0 249 21 266 12 10 32 18 44 18 15 0 17 -3 7 -9z m-4588
-227 c5 -52 -1 -86 -16 -81 -12 4 -16 67 -3 67 5 0 4 6 -1 13 -17 21 -24 49
-11 41 8 -5 9 -2 4 11 -5 14 -4 16 7 6 8 -6 17 -32 20 -57z m25 -9 c-3 -3 -9
2 -12 12 -6 14 -5 15 5 6 7 -7 10 -15 7 -18z m-71 -72 c-3 -10 -5 -4 -5 12 0
17 2 24 5 18 2 -7 2 -21 0 -30z m0 -875 c-2 -13 -4 -3 -4 22 0 25 2 35 4 23 2
-13 2 -33 0 -45z m6058 25 c22 -11 54 -35 70 -53 26 -27 30 -39 30 -88 0 -49
-5 -65 -37 -114 -44 -67 -138 -221 -298 -488 -190 -317 -370 -604 -388 -617
-9 -7 -19 -13 -23 -13 -4 0 -59 66 -123 148 -150 192 -251 320 -411 522 -72
91 -196 248 -276 349 -79 102 -169 214 -200 251 -47 54 -55 69 -48 88 5 12 17
26 28 30 11 4 384 7 828 7 l808 0 40 -22z m1276 -16 c-10 -9 -11 -8 -5 6 3 10
9 15 12 12 3 -3 0 -11 -7 -18z m-4124 -19 c-3 -8 -6 -5 -6 6 -1 11 2 17 5 13
3 -3 4 -12 1 -19z m-2322 -158 c3 -5 1 -10 -4 -10 -6 0 -11 5 -11 10 0 6 2 10
4 10 3 0 8 -4 11 -10z m5700 -251 c-10 -15 -25 -10 -19 6 4 8 10 12 15 9 5 -3
7 -10 4 -15z m-5345 -249 c0 -5 -2 -10 -4 -10 -3 0 -8 5 -11 10 -3 6 -1 10 4
10 6 0 11 -4 11 -10z m28 -45 c-3 -3 -9 2 -12 12 -6 14 -5 15 5 6 7 -7 10 -15
7 -18z m26 -24 c3 -5 -1 -11 -9 -14 -9 -4 -12 -1 -8 9 6 16 10 17 17 5z m4987
-144 c-10 -9 -11 -8 -5 6 3 10 9 15 12 12 3 -3 0 -11 -7 -18z m-4686 -283 c9
-15 12 -23 6 -20 -11 7 -35 46 -28 46 3 0 12 -12 22 -26z m-325 -308 c0 -3 -4
-8 -10 -11 -5 -3 -10 -1 -10 4 0 6 5 11 10 11 6 0 10 -2 10 -4z m4650 -38 c0
-4 -6 -5 -14 -2 -8 3 -12 12 -9 21 5 12 7 12 14 1 5 -7 9 -16 9 -20z m-4276
-504 c3 -8 2 -12 -4 -9 -6 3 -10 10 -10 16 0 14 7 11 14 -7z m3466 -754 c0 -5
-4 -10 -10 -10 -5 0 -10 5 -10 10 0 6 5 10 10 10 6 0 10 -4 10 -10z m-2880
-70 c0 -5 -2 -10 -4 -10 -3 0 -8 5 -11 10 -3 6 -1 10 4 10 6 0 11 -4 11 -10z
m2180 -1050 c0 -5 -5 -10 -11 -10 -5 0 -7 5 -4 10 3 6 8 10 11 10 2 0 4 -4 4
-10z m-695 -210 c3 -6 -1 -7 -9 -4 -18 7 -21 14 -7 14 6 0 13 -4 16 -10z
m1765 -124 c0 -11 -19 -15 -25 -6 -3 5 1 10 9 10 9 0 16 -2 16 -4z"/>
<path d="M8180 8832 c-44 -22 -92 -85 -121 -159 -19 -47 -23 -78 -24 -158 0
-94 2 -104 33 -162 l32 -62 0 -807 c0 -882 -2 -847 58 -894 24 -20 26 -20 56
-2 39 23 82 85 95 139 7 25 13 209 16 445 5 365 7 410 26 476 22 78 21 83 -17
249 -24 107 -12 341 20 385 9 13 34 45 56 73 54 68 68 131 51 231 -14 82 -38
135 -90 196 -57 66 -124 84 -191 50z"/>
<path d="M8555 8106 c-43 -18 -89 -75 -131 -159 -30 -58 -38 -87 -42 -148 -4
-67 -1 -84 21 -133 65 -141 164 -197 270 -152 42 17 107 88 137 151 22 44 25
62 23 152 -2 111 -17 160 -70 229 -49 64 -139 90 -208 60z"/>
<path d="M9280 9242 c-41 -22 -95 -97 -112 -155 -6 -23 -11 -77 -11 -119 1
-62 6 -87 28 -130 33 -66 50 -85 99 -110 55 -28 124 -21 173 18 57 47 86 113
91 210 6 110 -1 138 -48 210 -59 91 -139 118 -220 76z"/>
<path d="M5204 11028 c-89 -60 -129 -146 -129 -278 0 -132 49 -221 301 -551
93 -122 106 -134 156 -134 33 0 46 7 74 38 26 28 34 45 34 75 0 41 -17 71
-137 236 -35 48 -63 91 -63 97 0 6 9 23 20 39 62 87 85 222 56 322 -47 162
-194 235 -312 156z"/>
<path d="M11425 8071 c-70 -42 -105 -105 -131 -233 -15 -75 -15 -85 0 -140 27
-99 88 -177 153 -199 55 -18 128 -6 176 27 76 53 128 194 112 302 -13 95 -87
212 -156 248 -40 20 -118 18 -154 -5z"/>
<path d="M10845 7211 c-76 -13 -108 -44 -165 -156 -32 -64 -35 -76 -35 -159 0
-111 16 -151 101 -251 l59 -69 -3 -223 -4 -222 27 -50 c36 -66 73 -83 124 -55
79 42 89 82 91 373 1 163 3 179 27 235 14 34 29 66 34 72 5 6 18 46 29 88 14
56 17 83 10 102 -6 14 -10 29 -10 35 0 5 125 9 306 8 261 0 310 2 330 16 39
25 57 62 58 119 0 61 -21 101 -61 117 -15 5 -178 9 -397 9 -205 -1 -379 1
-387 4 -30 10 -96 13 -134 7z"/>
<path d="M11400 6636 c-32 -18 -83 -89 -117 -162 -48 -104 -29 -273 40 -351
119 -136 326 -77 382 109 17 60 20 185 4 243 -16 61 -64 129 -108 153 -46 26
-160 30 -201 8z"/>
</g>
</svg>
